<svg xmlns="http://www.w3.org/2000/svg" width="40" height="40">
    <defs>
        <clipPath id="a">
            <path data-name="Rectangle 10" transform="translate(37 110)" style="fill:#fff" d="M0 0h40v40H0z"/>
        </clipPath>
    </defs>
    <g style="clip-path:url(#a)">
        <path d="M19.744 0a19.744 19.744 0 1 0 19.744 19.744A19.766 19.766 0 0 0 19.744 0zm0 31.1a2 2 0 1 1 2-2 2.005 2.005 0 0 1-2 2zm2-10.292a2 2 0 1 1-4.01 0V10.249a2 2 0 0 1 4.01 0z" transform="translate(0 .556)" style="fill:#fb4b6f"/>
    </g>
</svg>
